<svg id="Layer_1" data-name="Layer 1" fill="#FFF" xmlns="http://www.w3.org/2000/svg" viewBox="0 0 418.6 838.04"><title>logoPonto</title><circle cx="57.63" cy="218.77" r="57.63"/><circle cx="360.96" cy="218.77" r="57.63"/><path d="M960,229.31h0a93.73,93.73,0,0,1,68.46,29.58H1156.8A209.37,209.37,0,0,0,960,121h0A209.37,209.37,0,0,0,763.2,258.89H891.54A93.73,93.73,0,0,1,960,229.31Z" transform="translate(-750.7 -120.98)" fill="#FFF"/><path fill="#FFF" d="M1054,420.61v36.63a94,94,0,0,1-94,94h0a94,94,0,0,1-94-94V420.61H750.7V959H866V637.33a208.42,208.42,0,0,0,94,22.27h0a208.42,208.42,0,0,0,94-22.27v52.48H1169.3V420.61Z" transform="translate(-750.7 -120.98)"/></svg>